<svg xmlns="http://www.w3.org/2000/svg" xmlns:xlink="http://www.w3.org/1999/xlink" width="50" zoomAndPan="magnify" viewBox="0 0 37.5 38.249999" height="51" preserveAspectRatio="xMidYMid meet" version="1.0"><defs><clipPath id="b8fa9a8e26"><path d="M 0.117188 0 L 36.894531 0 L 36.894531 37.515625 L 0.117188 37.515625 Z M 0.117188 0 " clip-rule="nonzero"/></clipPath><clipPath id="95b39e7dab"><path d="M 13 13 L 31 13 L 31 33 L 13 33 Z M 13 13 " clip-rule="nonzero"/></clipPath><clipPath id="b582c00fdf"><path d="M 11.628906 16.835938 L 21.5 11.132812 L 30.582031 26.859375 L 20.707031 32.558594 Z M 11.628906 16.835938 " clip-rule="nonzero"/></clipPath><clipPath id="c849bd87b2"><path d="M 11.628906 16.835938 L 21.5 11.132812 L 39.027344 41.484375 L 29.15625 47.1875 Z M 11.628906 16.835938 " clip-rule="nonzero"/></clipPath><clipPath id="0254001fcb"><path d="M 2.148438 2.398438 L 34.871094 2.398438 L 34.871094 35.125 L 2.148438 35.125 Z M 2.148438 2.398438 " clip-rule="nonzero"/></clipPath></defs><g clip-path="url(#b8fa9a8e26)"><path fill="#ffffff" d="M 0.117188 0 L 36.894531 0 L 36.894531 37.515625 L 0.117188 37.515625 Z M 0.117188 0 " fill-opacity="1" fill-rule="nonzero"/><path fill="#ffffff" d="M 0.117188 0 L 36.894531 0 L 36.894531 37.515625 L 0.117188 37.515625 Z M 0.117188 0 " fill-opacity="1" fill-rule="nonzero"/></g><g clip-path="url(#95b39e7dab)"><g clip-path="url(#b582c00fdf)"><g clip-path="url(#c849bd87b2)"><path fill="#3dbfe1" d="M 22.761719 14.582031 C 21.1875 13.195312 19.023438 12.910156 17.207031 13.65625 L 20.71875 16.757812 C 21.140625 17.132812 21.179688 17.777344 20.808594 18.199219 L 19.058594 20.183594 C 18.683594 20.609375 18.039062 20.648438 17.613281 20.277344 L 14.101562 17.175781 C 13.585938 19.074219 14.136719 21.183594 15.714844 22.570312 C 16.820312 23.550781 18.222656 23.980469 19.589844 23.890625 C 20.925781 23.800781 22.191406 24.476562 22.824219 25.652344 L 31.925781 42.765625 C 32.503906 43.84375 33.859375 44.316406 34.929688 43.730469 C 36.03125 43.128906 36.398438 41.730469 35.742188 40.667969 L 24.667969 22.941406 C 24.15625 22.113281 24.019531 21.105469 24.3125 20.175781 C 24.925781 18.230469 24.390625 16.019531 22.761719 14.582031 Z M 33.660156 41.421875 C 33.261719 41.648438 32.753906 41.511719 32.523438 41.117188 C 32.292969 40.71875 32.429688 40.210938 32.828125 39.980469 C 33.226562 39.75 33.734375 39.886719 33.960938 40.285156 C 34.191406 40.683594 34.054688 41.191406 33.660156 41.421875 Z M 33.660156 41.421875 " fill-opacity="1" fill-rule="nonzero"/></g></g></g><g clip-path="url(#0254001fcb)"><path fill="#004aad" d="M 32.777344 20.21875 L 32.847656 18.769531 C 32.847656 18.257812 32.800781 17.738281 32.765625 17.230469 C 33.492188 16.796875 34.191406 16.328125 34.867188 15.816406 C 34.785156 15.339844 34.679688 14.871094 34.546875 14.40625 C 34.429688 13.941406 34.28125 13.484375 34.09375 13.042969 C 33.246094 12.933594 32.394531 12.882812 31.539062 12.898438 C 31.347656 12.460938 31.132812 12.035156 30.898438 11.621094 C 30.644531 11.175781 30.363281 10.75 30.054688 10.339844 C 30.480469 9.605469 30.859375 8.84375 31.1875 8.0625 C 30.867188 7.703125 30.546875 7.34375 30.214844 6.992188 L 29.167969 6.003906 C 28.386719 6.339844 27.628906 6.722656 26.890625 7.152344 C 26.503906 6.867188 26.09375 6.605469 25.671875 6.367188 C 25.230469 6.105469 24.777344 5.871094 24.304688 5.664062 C 24.308594 4.820312 24.253906 3.980469 24.144531 3.140625 L 23.460938 2.890625 L 22.765625 2.707031 C 22.300781 2.574219 21.828125 2.472656 21.351562 2.398438 C 20.847656 3.074219 20.386719 3.777344 19.964844 4.507812 L 18.515625 4.429688 C 18.003906 4.429688 17.488281 4.476562 16.976562 4.519531 C 16.542969 3.789062 16.074219 3.082031 15.566406 2.398438 C 15.089844 2.480469 14.617188 2.585938 14.152344 2.71875 C 13.683594 2.832031 13.226562 2.980469 12.777344 3.160156 C 12.667969 4.007812 12.621094 4.859375 12.632812 5.714844 C 12.195312 5.902344 11.769531 6.117188 11.355469 6.355469 C 10.910156 6.605469 10.484375 6.882812 10.078125 7.191406 C 9.339844 6.769531 8.574219 6.394531 7.789062 6.074219 C 7.429688 6.398438 7.074219 6.710938 6.722656 7.050781 L 5.75 8.148438 C 6.089844 8.929688 6.472656 9.691406 6.902344 10.425781 C 6.613281 10.8125 6.351562 11.214844 6.113281 11.636719 C 5.851562 12.078125 5.617188 12.535156 5.414062 13.003906 C 4.566406 13.007812 3.726562 13.0625 2.886719 13.171875 L 2.640625 13.816406 L 2.453125 14.539062 C 2.324219 14.996094 2.222656 15.460938 2.148438 15.933594 C 2.824219 16.433594 3.527344 16.894531 4.253906 17.320312 L 4.179688 18.769531 C 4.179688 19.28125 4.222656 19.789062 4.269531 20.300781 C 3.535156 20.730469 2.828125 21.199219 2.148438 21.707031 C 2.226562 22.183594 2.335938 22.652344 2.46875 23.113281 C 2.582031 23.582031 2.730469 24.042969 2.90625 24.492188 C 3.757812 24.601562 4.609375 24.648438 5.464844 24.640625 C 5.652344 25.078125 5.863281 25.503906 6.101562 25.917969 C 6.351562 26.363281 6.632812 26.789062 6.9375 27.195312 C 6.515625 27.9375 6.144531 28.699219 5.820312 29.488281 C 6.148438 29.847656 6.460938 30.210938 6.796875 30.558594 L 7.898438 31.527344 C 8.679688 31.191406 9.4375 30.808594 10.171875 30.378906 C 10.546875 30.664062 10.941406 30.921875 11.355469 31.152344 C 11.796875 31.40625 12.253906 31.640625 12.722656 31.855469 C 12.722656 32.699219 12.777344 33.539062 12.886719 34.378906 L 13.566406 34.621094 L 14.269531 34.804688 C 14.730469 34.941406 15.203125 35.042969 15.679688 35.113281 C 16.183594 34.4375 16.644531 33.738281 17.066406 33.011719 L 18.515625 33.082031 C 19.027344 33.082031 19.539062 33.035156 20.050781 32.996094 C 20.476562 33.726562 20.945312 34.425781 21.457031 35.097656 C 21.929688 35.019531 22.398438 34.910156 22.859375 34.78125 C 23.332031 34.667969 23.792969 34.523438 24.242188 34.34375 C 24.347656 33.496094 24.398438 32.644531 24.386719 31.789062 C 24.824219 31.597656 25.25 31.386719 25.664062 31.152344 C 26.109375 30.898438 26.535156 30.617188 26.945312 30.308594 C 27.675781 30.734375 28.4375 31.109375 29.21875 31.4375 C 29.574219 31.117188 29.941406 30.800781 30.285156 30.46875 L 31.257812 29.398438 C 30.917969 28.617188 30.535156 27.859375 30.105469 27.125 C 30.398438 26.742188 30.660156 26.34375 30.898438 25.925781 C 31.15625 25.480469 31.390625 25.027344 31.601562 24.558594 C 32.445312 24.5625 33.289062 24.507812 34.125 24.398438 L 34.367188 23.714844 L 34.554688 23.015625 C 34.691406 22.554688 34.792969 22.082031 34.859375 21.605469 C 34.191406 21.101562 33.5 20.640625 32.777344 20.21875 Z M 26.523438 30.199219 C 24.472656 30.960938 22.367188 31.214844 20.195312 30.953125 C 18.382812 30.738281 16.6875 30.167969 15.117188 29.234375 C 14.40625 29.003906 13.726562 28.703125 13.078125 28.335938 C 12.425781 27.96875 11.820312 27.535156 11.257812 27.042969 C 10.695312 26.550781 10.191406 26.007812 9.738281 25.414062 C 9.285156 24.816406 8.902344 24.183594 8.578125 23.507812 C 8.257812 22.835938 8.003906 22.132812 7.828125 21.410156 C 7.648438 20.683594 7.542969 19.949219 7.511719 19.199219 C 7.484375 18.453125 7.53125 17.710938 7.652344 16.976562 C 7.773438 16.238281 7.96875 15.519531 8.234375 14.824219 C 8.503906 14.125 8.839844 13.460938 9.242188 12.832031 C 9.644531 12.203125 10.105469 11.621094 10.628906 11.085938 C 11.148438 10.550781 11.71875 10.074219 12.339844 9.65625 C 12.957031 9.238281 13.613281 8.886719 14.300781 8.601562 C 14.992188 8.3125 15.707031 8.101562 16.4375 7.960938 C 17.171875 7.820312 17.914062 7.753906 18.660156 7.765625 C 19.40625 7.777344 20.144531 7.863281 20.875 8.023438 C 21.605469 8.183594 22.3125 8.417969 22.992188 8.722656 C 23.675781 9.027344 24.320312 9.398438 24.925781 9.832031 C 25.535156 10.269531 26.089844 10.761719 26.597656 11.3125 C 27.101562 11.859375 27.546875 12.453125 27.933594 13.09375 C 28.320312 13.734375 28.636719 14.40625 28.882812 15.113281 C 29.132812 15.816406 29.308594 16.539062 29.40625 17.28125 C 29.507812 18.019531 29.535156 18.761719 29.484375 19.507812 C 29.433594 20.253906 29.308594 20.988281 29.109375 21.707031 C 28.910156 22.425781 28.640625 23.121094 28.296875 23.785156 C 28.296875 23.738281 28.363281 23.695312 28.386719 23.648438 L 30.546875 25.566406 C 29.058594 27.175781 28.546875 29.4375 26.523438 30.199219 Z M 26.523438 30.199219 " fill-opacity="1" fill-rule="nonzero"/></g><path fill="#004aad" d="M 28.296875 23.769531 C 28.003906 24.347656 27.660156 24.898438 27.269531 25.414062 C 26.878906 25.933594 26.445312 26.410156 25.96875 26.851562 C 25.492188 27.292969 24.980469 27.6875 24.433594 28.039062 C 23.886719 28.386719 23.316406 28.6875 22.714844 28.933594 C 22.117188 29.183594 21.5 29.375 20.867188 29.515625 C 20.230469 29.65625 19.589844 29.738281 18.941406 29.761719 C 18.296875 29.789062 17.648438 29.757812 17.007812 29.667969 C 16.363281 29.578125 15.734375 29.433594 15.117188 29.234375 C 16.699219 30.175781 18.402344 30.753906 20.230469 30.964844 C 22.398438 31.226562 24.507812 30.976562 26.554688 30.210938 C 28.578125 29.453125 29.109375 27.191406 30.578125 25.558594 L 28.417969 23.644531 C 28.34375 23.683594 28.34375 23.726562 28.296875 23.769531 Z M 28.296875 23.769531 " fill-opacity="1" fill-rule="nonzero"/><path fill="#004aad" d="M 19.199219 29.738281 C 20.152344 29.679688 21.082031 29.5 21.984375 29.199219 C 22.890625 28.894531 23.742188 28.484375 24.539062 27.960938 C 25.335938 27.4375 26.054688 26.820312 26.691406 26.109375 C 27.328125 25.402344 27.863281 24.621094 28.296875 23.769531 C 27.421875 24.972656 26.3125 25.894531 24.96875 26.53125 C 24.257812 26.882812 23.515625 27.144531 22.742188 27.316406 C 21.96875 27.488281 21.1875 27.5625 20.394531 27.546875 C 19.601562 27.527344 18.824219 27.417969 18.058594 27.210938 C 17.292969 27.003906 16.566406 26.710938 15.871094 26.328125 C 14.402344 25.566406 13.257812 24.464844 12.445312 23.023438 C 11.625 21.535156 11.296875 19.945312 11.457031 18.25 C 11.535156 17.398438 11.75 16.582031 12.09375 15.796875 C 12.425781 15 12.867188 14.269531 13.425781 13.605469 C 14 12.9375 14.675781 12.398438 15.453125 11.988281 C 16.234375 11.578125 17.058594 11.324219 17.933594 11.230469 C 18.84375 11.132812 19.738281 11.203125 20.621094 11.445312 C 21.503906 11.6875 22.3125 12.078125 23.046875 12.621094 C 22.339844 11.980469 21.542969 11.492188 20.652344 11.152344 C 19.757812 10.816406 18.835938 10.652344 17.882812 10.660156 C 16.894531 10.671875 15.941406 10.863281 15.027344 11.238281 C 14.113281 11.609375 13.296875 12.136719 12.582031 12.820312 C 11.105469 14.253906 10.171875 15.976562 9.777344 17.996094 C 9.566406 19 9.519531 20.011719 9.636719 21.03125 C 9.734375 22.066406 9.988281 23.058594 10.402344 24.015625 C 11.257812 25.980469 12.582031 27.558594 14.371094 28.742188 C 14.617188 28.910156 14.867188 29.066406 15.125 29.222656 C 16.449219 29.652344 17.808594 29.824219 19.199219 29.738281 Z M 19.199219 29.738281 " fill-opacity="1" fill-rule="nonzero"/></svg>